<svg width="20" height="20" viewBox="0 0 20 20" fill="none" xmlns="http://www.w3.org/2000/svg">
<path d="M16.1364 4.68181L15.6291 12.8841C15.4998 14.9794 15.4352 16.0275 14.9091 16.7811C14.6494 17.1535 14.315 17.4678 13.9273 17.704C13.1443 18.1818 12.0945 18.1818 9.99508 18.1818C7.89235 18.1818 6.84099 18.1818 6.05635 17.7032C5.66844 17.4665 5.33407 17.1516 5.07453 16.7786C4.54926 16.0243 4.48544 14.9745 4.35944 12.8759L3.86363 4.68181M2.63635 4.68181H17.3636M13.3185 4.68181L12.7597 3.52981C12.3891 2.76399 12.2034 2.3819 11.8834 2.14299C11.8124 2.09007 11.7371 2.04301 11.6584 2.00227C11.3042 1.81818 10.8787 1.81818 10.0286 1.81818C9.15644 1.81818 8.72035 1.81818 8.35953 2.00963C8.27977 2.05235 8.2037 2.10161 8.13208 2.1569C7.8089 2.40481 7.62808 2.80163 7.26644 3.59445L6.77063 4.68181M7.95453 13.6818V8.77272M12.0454 13.6818V8.77272" stroke="#999999" stroke-width="1.22727" stroke-linecap="round" stroke-linejoin="round"/>
</svg>
