<svg width="22" height="22" viewBox="0 0 22 22" fill="none" xmlns="http://www.w3.org/2000/svg">
<path d="M11.125 21C16.6478 21 21.125 16.5228 21.125 11C21.125 5.47715 16.6478 1 11.125 1C5.60215 1 1.125 5.47715 1.125 11C1.125 16.5228 5.60215 21 11.125 21Z" stroke="black" stroke-width="1.5" stroke-linecap="round" stroke-linejoin="round"/>
<path d="M6.625 16C8.957 13.558 13.268 13.443 15.625 16M13.62 8.5C13.62 9.88 12.5 11 11.117 11C10.7884 11.0005 10.4628 10.9363 10.1591 10.8109C9.85529 10.6854 9.57922 10.5014 9.34665 10.2692C9.11408 10.037 8.92957 9.76121 8.80368 9.45763C8.6778 9.15406 8.613 8.82864 8.613 8.5C8.613 7.12 9.733 6 11.117 6C11.4456 5.99961 11.771 6.06398 12.0746 6.18944C12.3783 6.3149 12.6542 6.49899 12.8867 6.73117C13.1192 6.96336 13.3036 7.23909 13.4294 7.5426C13.5552 7.84611 13.62 8.17144 13.62 8.5Z" stroke="black" stroke-width="1.5" stroke-linecap="round" stroke-linejoin="round"/>
</svg>
